<?xml version="1.0" encoding="UTF-8"?>
<svg id="a" xmlns="http://www.w3.org/2000/svg" version="1.1" viewBox="0 0 80 80">
  <!-- Generator: Adobe Illustrator 30.1.0, SVG Export Plug-In . SVG Version: 2.1.1 Build 136)  -->
  <defs>
    <style>
      .st0 {
        fill: #131313;
      }

      .st1 {
        fill: #d1fe17;
      }
    </style>
  </defs>
  <rect class="st1" y="0" width="80" height="80" rx="16" ry="16"/>
  <path class="st0" d="M64.28,39.6l-.05-.51c-.44-4.86-3.6-13.99-12.36-13.99-6.51,0-11.42,6.42-15.76,12.08-3.46,4.53-6.46,8.42-9.76,8.42-.88-.09-2.01-.53-2.7-1.52-.62-.9-.78-2.05-.46-3.43.51-2.19,3.41-4.21,6.48-6.37,1.68-1.15,3.41-2.37,4.61-3.54,3.46-3.34,5.21-5.75,5.21-9.64s-2.15-5.82-3.94-6.65c-3.6-1.66-8.88-.69-12.25,2.21-.51.46-1.01.9-1.48,1.31-3.39,3.01-5.67,5.06-10.91,3.5v6.31c6.94,3.06,12.78-2.78,14.99-5.48,1.71-1.77,3.51-2.81,4.84-2.81h.07c.6.02,1.11.25,1.48.67.6.69.83,1.5.71,2.39-.25,1.89-2.21,4.1-5.81,6.51-4.22,2.83-11.28,7.57-11.83,13.53-.42,4.28,1.8,8.56,5.26,10.22,8.07,3.82,12.99-2.76,18.2-9.71,3.99-5.36,7.77-10.45,13.03-10.45,4.73,0,6.48,3.91,6.48,6.37v.48l-.46.09c-11.46,2.03-17.72,12.75-17.72,17.7s4.2,9.18,9.37,9.18c6.04,0,13.52-5.15,14.72-19.65l.05-.53h4.78v-6.7h-4.8s0,0,0,0ZM58.03,47.03c-.92,8.68-5.37,12.73-8.07,12.73-1.22,0-2.93-1.01-2.93-2.9,0-2.12,3.16-8.54,10.27-10.45l.83-.21-.09.83h0Z"/>
</svg>